<?xml version="1.0" encoding="UTF-8" standalone="no"?>
<svg width="100px" height="96px" viewBox="0 0 100 96" version="1.1" xmlns="http://www.w3.org/2000/svg" xmlns:xlink="http://www.w3.org/1999/xlink">
    <!-- Generator: Sketch 47 (45396) - http://www.bohemiancoding.com/sketch -->
    <title>Group</title>
    <desc>Created with Sketch.</desc>
    <defs></defs>
    <g id="Page-1" stroke="none" stroke-width="1" fill="none" fill-rule="evenodd">
        <g id="01.home" transform="translate(-30.000000, -30.000000)" fill-rule="nonzero" fill="#FFFFFF">
            <g id="Group" transform="translate(30.000000, 30.000000)">
                <path d="M0.57959,9.30615 L0.57959,7.772 L2.728,7.772 L2.728,2.418 L4.689,2.418 L4.689,7.772 L7.72367,7.772 L7.72367,9.30618 L4.689,9.30618 L4.689,20.645 C4.61396326,21.4889901 4.9059021,22.3244335 5.49027,22.938 C6.16797217,23.4684529 7.01926477,23.7268529 7.87748,23.66261 L7.87748,25.40187 C7.14899164,25.4130583 6.42183621,25.3358274 5.71195,25.17187 C5.09739369,25.017727 4.53225086,24.7095277 4.06986,24.27636 C3.11914063,23.3164916 2.62987602,21.992437 2.728,20.645 L2.728,9.30615 L0.57959,9.30615 Z" id="Shape"></path>
                <path d="M10.70752,25.40186 L10.70752,0.54248 L12.668,0.54248 L12.668,9.064 C12.9030738,8.63578967 13.2362226,8.2693421 13.64017,7.99466 C14.2292868,7.56625375 14.9405971,7.33873585 15.66898,7.34573 C16.7332471,7.33869567 17.7501761,7.78510016 18.46537,8.57327 C19.2598046,9.55670047 19.6445529,10.808531 19.53959,12.06839 L19.53959,25.40189 L17.57861,25.40189 L17.57861,12.07666 C17.6329884,11.2991973 17.3890626,10.5302299 16.89648,9.92627 C16.4470017,9.43558904 15.8057062,9.16558798 15.14062,9.18701 C14.4707938,9.16760504 13.8249005,9.43684625 13.36718,9.92627 C12.8638951,10.5251764 12.613161,11.2962872 12.66796,12.07666 L12.66796,25.40186 L10.70752,25.40186 Z" id="Shape"></path>
                <path d="M23.12061,16.5415 C23.0870582,14.7994076 23.1838448,13.0572454 23.41016,11.32959 C23.5154069,10.340097 23.9132016,9.40443103 24.55274,8.64209 C25.3702543,7.76818221 26.5285365,7.29470358 27.72413,7.3457 C28.9319534,7.29185134 30.103735,7.76463252 30.936,8.6416 C31.5932124,9.41947845 31.9950446,10.3808088 32.08691,11.395 C32.2905042,13.1919949 32.3766239,15.00036 32.34472,16.80857 L25.08105,16.80857 C25.0573018,18.2541388 25.1141935,19.6999072 25.25146,21.13914 C25.2929666,21.8621318 25.5482207,22.5565178 25.98486,23.13426 C26.4263696,23.6626558 27.0866611,23.9582266 27.77486,23.93553 C28.4393488,23.9701414 29.0862292,23.7150937 29.5483,23.23631 C30.1283183,22.5352915 30.4153578,21.6374401 30.34957,20.72996 L32.31051,20.72996 C32.3081618,21.4647091 32.1944018,22.1948534 31.97311,22.89549 C31.363671,24.6650571 29.6419155,25.804886 27.77487,25.67479 C26.5660397,25.7374326 25.3898117,25.2707918 24.5527,24.39647 C23.9143741,23.6382989 23.5165726,22.7070386 23.41012,21.72167 C23.1838312,20.0046517 23.0870547,18.2730405 23.12061,16.5415 L23.12061,16.5415 Z M25.08106,15.27392 L30.34961,15.27392 C30.3523456,14.0618146 30.2840318,12.8505908 30.14502,11.64648 C30.092898,11.0108955 29.86239,10.4029401 29.48002,9.89257 C29.0371069,9.37972591 28.392999,9.08493386 27.71537,9.08493386 C27.037741,9.08493386 26.3936331,9.37972591 25.95072,9.89257 C25.56835,10.4029401 25.337842,11.0108955 25.28572,11.64648 C25.1466811,12.8505925 25.0783406,14.0618197 25.08105,15.27393 L25.08106,15.27392 Z" id="Shape"></path>
                <polygon id="Shape" points="2.09717 60.3208 2.09717 35.46143 6.00147 35.46143 6.00147 60.3208"></polygon>
                <polygon id="Shape" points="10.1958 60.3208 10.1958 35.46143 13.69092 35.46143 19.52246 50.22706 19.52246 35.46143 23.42676 35.46143 23.42676 60.3208 19.96582 60.3208 14.1001 45.55518 14.1001 60.3208"></polygon>
                <polygon id="Shape" points="27.604 60.3208 27.604 35.46143 38.03857 35.46143 38.03857 38.99073 31.5083 38.99073 31.5083 46.03273 37.1353 46.03273 37.1353 49.56203 31.5083 49.56203 31.5083 60.3208"></polygon>
                <polygon id="Shape" points="41.21 60.3208 41.21 35.46143 45.1143 35.46143 45.1143 60.3208"></polygon>
                <polygon id="Shape" points="49.30908 60.3208 49.30908 35.46143 52.8042 35.46143 58.63574 50.22706 58.63574 35.46143 62.54 35.46143 62.54 60.3208 59.0791 60.3208 53.21338 45.55518 53.21338 60.3208"></polygon>
                <polygon id="Shape" points="66.71729 60.3208 66.71729 35.46143 70.62159 35.46143 70.62159 60.3208"></polygon>
                <polygon id="Shape" points="73.45215 38.99072 73.45215 35.46142 85.71094 35.46142 85.71094 38.99072 81.5166 38.99072 81.5166 60.3208 77.6123 60.3208 77.6123 38.99072"></polygon>
                <polygon id="Shape" points="86.42725 35.46143 90.75782 35.46143 93.1963 45.29932 95.68556 35.46143 99.98244 35.46143 95.15724 50.58497 95.15724 60.32081 91.25245 60.32081 91.25245 50.585"></polygon>
                <path d="M1.44922,86.21387 C1.43798667,85.4335967 1.43229,84.9091833 1.43213,84.64063 L1.43213,80.99415 C1.43213,80.7270633 1.43782667,80.2013467 1.44922,79.417 C1.46045333,78.63282 1.48031,78.09864 1.50879,77.81446 C1.53711,77.53028 1.57975333,77.08692 1.63672,76.48438 C1.66825166,76.0328352 1.73965649,75.5849638 1.8501,75.146 C1.93506,74.85596 2.04020333,74.5008167 2.16553,74.08057 C2.27032261,73.7061531 2.42520598,73.3476054 2.62598,73.01465 C2.80856481,72.7234205 3.01378853,72.4470136 3.23975,72.18799 C4.44664833,70.7929849 6.22161467,70.0213535 8.06495,70.09033 C9.71185282,70.0197583 11.3151809,70.6302593 12.49806,71.77833 C13.7815593,73.2017893 14.4708963,75.0629102 14.42433,76.97901 L10.50293,76.97901 C10.4458033,74.73975 9.63313667,73.62012 8.06493,73.62012 C7.3208612,73.5691937 6.61048031,73.9373784 6.22313,74.57471 C5.7933629,75.4223964 5.55200611,76.3530009 5.51561,77.30271 C5.39647,78.5531967 5.3369,80.3906 5.3369,82.81492 C5.3369,85.23924 5.39647,87.0737133 5.51561,88.31834 C5.55204756,89.2636951 5.79345611,90.1898452 6.22313,91.0327 C6.61185564,91.6680865 7.32184599,92.0343765 8.06493,91.9829 C8.78741587,92.0197031 9.47641501,91.6754805 9.88085,91.07567 C10.3150836,90.4018779 10.5322043,89.61111 10.50292,88.81005 L10.50292,84.9585 L8.06492,84.9585 L8.06492,81.71875 L14.4243,81.71875 L14.4243,88.60742 C14.5418115,90.4712828 13.9130686,92.3053354 12.67674,93.70508 C11.4627731,94.9304264 9.78820221,95.5867807 8.06492,95.5127 C6.22424452,95.5872712 4.44926239,94.8220999 3.23972,93.43262 C3.0137585,93.1735964 2.80853478,92.8971895 2.62595,92.60596 C2.42517279,92.2731802 2.27028791,91.9147938 2.1655,91.54053 C2.04001333,91.1201167 1.93487,90.7649733 1.85007,90.4751 C1.73962649,90.0361362 1.66822166,89.5882648 1.63669,89.13672 C1.57956333,88.5346667 1.53692,88.09212 1.50876,87.80908 C1.48046,87.52588 1.46061333,86.9941433 1.44922,86.21387 Z" id="Shape"></path>
                <path d="M16.04443,95.23975 L22.16552,70.38038 L25.96777,70.38038 L32.00341,95.23976 L27.92871,95.23976 L26.90576,90.312 L21.14258,90.312 L20.1709,95.23973 L16.04443,95.23975 Z M21.90966,86.78275 L26.17236,86.78275 L24.041,76.38232 L21.90966,86.78275 Z" id="Shape"></path>
                <polygon id="Shape" points="34.30518 95.23975 34.30518 70.38037 37.83448 70.38037 42.64259 83.44092 47.43409 70.38037 50.99757 70.38037 50.99757 95.23975 47.07568 95.23975 47.07568 79.74121 43.69968 89.93701 41.53468 89.93701 38.20948 79.91162 38.20948 95.23975"></polygon>
                <polygon id="Shape" points="55.1748 95.23975 55.1748 70.38037 65.60938 70.38037 65.60938 73.90967 59.0791 73.90967 59.0791 80.95167 64.7061 80.95167 64.7061 84.48097 59.0791 84.48097 59.0791 91.71046 65.60937 91.71046 65.60937 95.23976"></polygon>
            </g>
        </g>
    </g>
</svg>