<?xml version="1.0" encoding="UTF-8" standalone="no"?>
<svg width="137px" height="33px" viewBox="0 0 137 33" version="1.1" xmlns="http://www.w3.org/2000/svg" xmlns:xlink="http://www.w3.org/1999/xlink">
    <!-- Generator: Sketch 47 (45396) - http://www.bohemiancoding.com/sketch -->
    <title>ebanx</title>
    <desc>Created with Sketch.</desc>
    <defs>
        <filter x="-2.7%" y="-0.5%" width="106.7%" height="101.3%" filterUnits="objectBoundingBox" id="filter-1">
            <feOffset dx="2" dy="0" in="SourceAlpha" result="shadowOffsetOuter1"></feOffset>
            <feGaussianBlur stdDeviation="2" in="shadowOffsetOuter1" result="shadowBlurOuter1"></feGaussianBlur>
            <feColorMatrix values="0 0 0 0 0   0 0 0 0 0   0 0 0 0 0  0 0 0 0.5 0" type="matrix" in="shadowBlurOuter1" result="shadowMatrixOuter1"></feColorMatrix>
            <feMerge>
                <feMergeNode in="shadowMatrixOuter1"></feMergeNode>
                <feMergeNode in="SourceGraphic"></feMergeNode>
            </feMerge>
        </filter>
        <polygon id="path-2" points="0 24.18543 0 0.170270008 15.0795066 0.170270008 15.0795066 24.18543 1.54642918e-15 24.18543"></polygon>
        <polygon id="path-4" points="0.439888237 0.170270008 17.5061758 0.170270008 17.5061758 8.11074106 0.439888237 8.11074106 0.439888237 0.170270008"></polygon>
        <polygon id="path-6" points="0.0139705802 0.170270008 17.9189808 0.170270008 17.9189808 24.185508 0.0139705802 24.185508"></polygon>
        <polygon id="path-8" points="0.325255462 0.170270008 19.2035803 0.170270008 19.2035803 24.1854167 0.325255462 24.1854167 0.325255462 0.170270008"></polygon>
        <polygon id="path-10" points="0.327672322 0.170270008 20.3571659 0.170270008 20.3571659 24.185508 0.327672322 24.185508 0.327672322 0.170270008"></polygon>
        <polygon id="path-12" points="15.1455893 0.170270008 0.0915951949 0.170270008 0.0915951949 24.1937704 15.1455893 24.1937704 15.1455893 0.170270008"></polygon>
    </defs>
    <g id="Page-1" stroke="none" stroke-width="1" fill="none" fill-rule="evenodd">
        <g id="01.home" transform="translate(-98.000000, -819.000000)">
            <g id="sidebar" filter="url(#filter-1)">
                <g id="ebanx" transform="translate(100.000000, 823.000000)">
                    <g id="Group-3" transform="translate(0.000000, 0.286309)">
                        <mask id="mask-3" fill="white">
                            <use xlink:href="#path-2"></use>
                        </mask>
                        <g id="Clip-2"></g>
                        <path d="M0.336727992,0.216466589 L15.0035242,12.0198757 C15.1048341,12.101587 15.1048341,12.254054 15.0035242,12.3357653 L0.336727992,24.1391744 C0.202110811,24.2478186 -4.62601994e-05,24.1528691 -4.62601994e-05,23.9812296 L-4.62601994e-05,0.374411422 C-4.62601994e-05,0.20277195 0.202110811,0.107822455 0.336727992,0.216466589" id="Fill-1" fill="#FFFFFF" mask="url(#mask-3)"></path>
                    </g>
                    <g id="Group-6" transform="translate(1.850408, 0.286309)">
                        <mask id="mask-5" fill="white">
                            <use xlink:href="#path-4"></use>
                        </mask>
                        <g id="Clip-5"></g>
                        <path d="M17.3174594,0.170133061 L0.439888237,0.170133061 L10.3053384,8.11074106 L17.4557774,0.482370824 C17.5672645,0.363227467 17.4816831,0.170133061 17.3174594,0.170133061" id="Fill-4" fill="#FFFFFF" mask="url(#mask-5)"></path>
                    </g>
                    <path d="M19.1678674,24.4717716 L2.29029621,24.4717716 L12.1557464,16.5311636 L19.3061854,24.1590773 C19.4176725,24.2786772 19.3320911,24.4717716 19.1678674,24.4717716" id="Fill-7" fill="#FFFFFF"></path>
                    <g id="Group-11" transform="translate(43.021985, 0.286309)">
                        <mask id="mask-7" fill="white">
                            <use xlink:href="#path-6"></use>
                        </mask>
                        <g id="Clip-10"></g>
                        <path d="M13.148629,16.6886063 C13.0551834,15.2168891 11.7594352,14.0989501 10.2656934,14.0989501 L4.81207847,14.0989501 L4.81207847,19.7598572 L10.3397097,19.7598572 C12.0471737,19.7598572 13.2605787,18.4492803 13.148629,16.6886063 M4.81207847,4.75783702 L4.81207847,9.67969017 C4.81207847,9.78970377 4.90274846,9.87917541 5.01423554,9.87917541 L9.60972375,9.87917541 C11.19136,9.87917541 12.3450893,8.61196484 12.2058461,6.97134713 C12.0906583,5.61283897 10.8837296,4.5957838 9.50193749,4.5957838 L4.97583957,4.5957838 C4.88563218,4.5957838 4.81207847,4.66836538 4.81207847,4.75783702 M17.9189808,17.2208712 C17.9189808,21.3379361 14.5461496,24.185508 10.3397097,24.185508 L0.211501632,24.185508 C0.102790163,24.185508 0.0139705802,24.0978623 0.0139705802,23.9905876 L0.0139705802,0.361401515 C0.0139705802,0.255496309 0.100939755,0.170133061 0.207800816,0.170133061 L9.60972375,0.170133061 C13.7120782,0.170133061 17.0145939,2.91499514 17.0145939,6.92889375 C17.0145939,8.98719794 16.1458273,10.5995134 14.720088,11.73206 C16.6671798,12.8294571 17.9189808,14.7165783 17.9189808,17.2208712" id="Fill-9" fill="#FFFFFF" mask="url(#mask-7)"></path>
                    </g>
                    <g id="Group-14" transform="translate(61.988667, 0.286309)" fill="#FFFFFF">
                        <path d="M14.6909441,15.2014598 L11.6053888,6.12967463 C11.5503391,5.96716492 11.3171877,5.96716492 11.2621381,6.12967463 L8.17612017,15.2014598 C8.136799,15.3169512 8.22423078,15.4370076 8.34774551,15.4370076 L14.5193187,15.4370076 C14.6428335,15.4370076 14.7302652,15.3169512 14.6909441,15.2014598 M16.1356501,19.8626583 L6.69671899,19.8626583 C6.61900186,19.8626583 6.54961156,19.911959 6.52509365,19.9849971 L5.14700231,24.0632605 C5.12248441,24.1362986 5.05355671,24.1855993 4.97537697,24.1855993 L0.181432502,24.1855993 C0.0560673617,24.1855993 -0.0309018132,24.063717 0.0102697643,23.947769 L8.40094474,0.289824204 C8.42685045,0.218155594 8.49485295,0.170224359 8.57210748,0.170224359 L14.2602616,0.170224359 C14.3370535,0.170224359 14.4059812,0.218155594 14.4309617,0.289367716 L22.8567945,23.9473125 C22.897966,24.063717 22.8109969,24.1855993 22.6856317,24.1855993 L17.8569921,24.1855993 C17.779275,24.1855993 17.7098847,24.1362986 17.6853668,24.0632605 L16.3072754,19.9849971 C16.2827575,19.911959 16.2138298,19.8626583 16.1356501,19.8626583" id="Fill-12"></path>
                    </g>
                    <g id="Group-17" transform="translate(86.969175, 0.286309)">
                        <mask id="mask-9" fill="white">
                            <use xlink:href="#path-8"></use>
                        </mask>
                        <g id="Clip-16"></g>
                        <path d="M19.2035803,0.363592657 L19.2035803,23.9918658 C19.2035803,24.098684 19.1161485,24.1854167 19.0078996,24.1854167 L15.655423,24.1854167 C15.5911213,24.1854167 15.5319082,24.154832 15.4949001,24.1027923 L5.12336335,9.50202506 L5.12336335,23.9918658 C5.12336335,24.098684 5.03546897,24.1854167 4.92768271,24.1854167 L0.521398708,24.1854167 C0.413612443,24.1854167 0.325255462,24.098684 0.325255462,23.9918658 L0.325255462,0.363592657 C0.325255462,0.256774476 0.413612443,0.170041764 0.521398708,0.170041764 L3.87433796,0.170041764 C3.93817704,0.170041764 3.9978527,0.201082945 4.03439825,0.252209596 L14.405935,14.8191968 L14.405935,0.363592657 C14.405935,0.256774476 14.4938294,0.170041764 14.6020782,0.170041764 L19.0078996,0.170041764 C19.1161485,0.170041764 19.2035803,0.256774476 19.2035803,0.363592657" id="Fill-15" fill="#FFFFFF" mask="url(#mask-9)"></path>
                    </g>
                    <g id="Group-20" transform="translate(108.711469, 0.286309)">
                        <mask id="mask-11" fill="white">
                            <use xlink:href="#path-10"></use>
                        </mask>
                        <g id="Clip-19"></g>
                        <path d="M14.9945498,24.0873631 L10.4999088,16.6525437 C10.4212664,16.5219882 10.2292866,16.5219882 10.1506443,16.6525437 L5.65600329,24.0873631 C5.61945773,24.148076 5.55330564,24.185508 5.48160233,24.185508 L0.531298391,24.185508 C0.374013713,24.185508 0.27594209,24.0156944 0.356434837,23.881487 L7.55128366,11.9717162 C7.58967962,11.9082644 7.58967962,11.829292 7.55128366,11.7662966 L0.739006686,0.473697552 C0.658513939,0.339946581 0.75612296,0.170133061 0.91387024,0.170133061 L5.86371158,0.170133061 C5.93541489,0.170133061 6.00202958,0.207565074 6.03857514,0.268277972 L10.1501817,7.08455614 C10.2292866,7.21556818 10.4212664,7.21556818 10.5003714,7.08455614 L14.6119779,0.268277972 C14.6485235,0.207565074 14.7151381,0.170133061 14.7868415,0.170133061 L19.7362202,0.170133061 C19.8944301,0.170133061 19.9920391,0.340403069 19.9110837,0.473697552 L13.0992694,11.7316035 C13.0608734,11.7950554 13.0608734,11.8744843 13.0992694,11.9374796 L20.3278881,23.881487 C20.4093061,24.015238 20.3112345,24.185508 20.1530246,24.185508 L15.1694133,24.185508 C15.09771,24.185508 15.0310953,24.148076 14.9945498,24.0873631" id="Fill-18" fill="#FFFFFF" mask="url(#mask-11)"></path>
                    </g>
                    <g id="Group-23" transform="translate(24.517906, 0.286309)">
                        <mask id="mask-13" fill="white">
                            <use xlink:href="#path-12"></use>
                        </mask>
                        <g id="Clip-22"></g>
                        <path d="M6.00087307,19.6444114 C5.37450997,19.5640695 4.88924048,19.0418473 4.88924048,18.4018512 L4.88924048,14.4559693 C4.88924048,14.353716 4.97297144,14.2706352 5.07705689,14.2706352 L13.9141428,14.2706352 C14.0182282,14.2706352 14.1024218,14.1875544 14.1024218,14.0853011 L14.1024218,9.99608197 C14.1024218,9.89382867 14.0182282,9.81074786 13.9141428,9.81074786 L5.07705689,9.81074786 C4.97297144,9.81074786 4.88924048,9.72766706 4.88924048,9.62541375 L4.88924048,4.88432984 C4.88924048,4.78162005 4.97297144,4.69899573 5.07705689,4.69899573 L14.7838345,4.69899573 C14.8874574,4.69899573 14.971651,4.61591492 14.971651,4.51366162 L14.971651,0.355512821 C14.971651,0.253259518 14.8874574,0.17017871 14.7838345,0.17017871 L0.279411605,0.17017871 C0.175326156,0.17017871 0.0915951949,0.253259518 0.0915951949,0.355512821 L0.0915951949,14.8229856 L0.0915951949,19.7060373 C0.0915951949,22.1843104 2.12750657,24.1937704 4.6394354,24.1937704 L15.1455893,24.1937704 L15.1455893,19.6444114 L6.00087307,19.6444114 Z" id="Fill-21" fill="#FFFFFF" mask="url(#mask-13)"></path>
                    </g>
                </g>
            </g>
        </g>
    </g>
</svg>